<?xml version="1.0" encoding="utf-8"?>
<!-- Generator: Adobe Illustrator 24.0.0, SVG Export Plug-In . SVG Version: 6.00 Build 0)  -->
<svg version="1.1" id="Layer_1" xmlns="http://www.w3.org/2000/svg" xmlns:xlink="http://www.w3.org/1999/xlink" x="0px" y="0px"
	 viewBox="0 0 3831.4 321.4" style="enable-background:new 0 0 3831.4 321.4;" xml:space="preserve">
<style type="text/css">
	.st0{clip-path:url(#SVGID_2_);}
	.st1{fill:none;stroke:#C6B784;stroke-miterlimit:10;}
</style>
<title>footer Pattern</title>
<g id="Layer_2_1_">
	<g id="Layer_1-2">
		<g>
			<defs>
				<polygon id="SVGID_1_" points="450.7,246.3 3.4,246.3 3.4,76.2 450.7,76.2 450,155.5 450.7,160.3 450.2,164.5 450.2,164.6 
					450,165.7 				"/>
			</defs>
			<clipPath id="SVGID_2_">
				<use xlink:href="#SVGID_1_"  style="overflow:visible;"/>
			</clipPath>
			<g class="st0">
				<path class="st1" d="M-16.2,148.5c1.5-0.6,3-0.8,4.6-0.8c1.5,0,2.9,0.3,4.3,0.8"/>
				<path class="st1" d="M-7.3,172.9c-2.9,1-6,1-8.9-0.1"/>
				<path class="st1" d="M-23.8,165.2c-1.1-2.8-1.1-5.9-0.1-8.8"/>
				<path class="st1" d="M0.7,156.4c0.5,1.3,0.7,2.8,0.7,4.2c0,1.6-0.3,3.1-0.8,4.6"/>
				<path class="st1" d="M11.7,156.4H39v-27.8c-9.2-2-16.4-9.2-18.3-18.5H-7.3v27.1C2.4,139.1,9.9,146.8,11.7,156.4z"/>
				<path class="st1" d="M-7.3,148.4c3.7,1.3,6.7,4.3,8,8"/>
				<path class="st1" d="M11.7,156.4c-1.7-9.7-9.3-17.3-19-19.1"/>
				<path class="st1" d="M20.6,110.2c1.9,9.3,9.1,16.5,18.3,18.5"/>
				<path class="st1" d="M39,193.5v-28.3H11.6c-1.9,9.5-9.4,16.9-18.9,18.7v27.5h28C22.7,202.4,29.9,195.4,39,193.5z"/>
				<path class="st1" d="M-7.3,183.9c9.5-1.8,17-9.2,18.9-18.7"/>
				<path class="st1" d="M0.5,165.2c-1.3,3.6-4.2,6.4-7.8,7.7"/>
				<path class="st1" d="M-16.2,137.4v-27.2h-27.8c-1.9,9.3-9.2,16.6-18.5,18.5v27.8H-35C-33.2,146.8-25.8,139.3-16.2,137.4z"/>
				<path class="st1" d="M-23.9,156.4c1.2-3.7,4.1-6.6,7.7-8"/>
				<path class="st1" d="M-16.2,137.4c-9.6,1.9-17.1,9.4-18.8,19.1"/>
				<path class="st1" d="M-34.9,165.2h-27.6v28.2c9.1,1.9,16.3,8.9,18.4,18h27.9v-27.5C-25.6,182-33,174.7-34.9,165.2z"/>
				<path class="st1" d="M-16.2,172.8c-3.5-1.3-6.3-4.1-7.6-7.6"/>
				<path class="st1" d="M38.4,94.1c1.5-0.6,3-0.8,4.6-0.8c1.5,0,2.9,0.3,4.3,0.8"/>
				<path class="st1" d="M47.3,118.5c-1.4,0.5-2.9,0.8-4.3,0.8c-1.6,0-3.1-0.3-4.6-0.8"/>
				<path class="st1" d="M30.8,110.9c-1.1-2.8-1.1-5.9-0.1-8.8"/>
				<path class="st1" d="M55.3,102.1c1,2.8,0.9,5.9-0.1,8.8"/>
				<path class="st1" d="M47.3,94.1c3.7,1.3,6.7,4.3,8,8"/>
				<path class="st1" d="M55.1,110.9c-1.3,3.6-4.2,6.4-7.8,7.7"/>
				<path class="st1" d="M30.7,102.1c1.2-3.7,4.1-6.6,7.7-8"/>
				<path class="st1" d="M38.4,118.4c-3.5-1.3-6.2-4.1-7.5-7.6"/>
				<path class="st1" d="M147.6,94.1c1.5-0.6,3-0.8,4.6-0.8c1.5,0,2.9,0.3,4.3,0.8"/>
				<path class="st1" d="M156.5,118.5c-1.4,0.5-2.9,0.8-4.3,0.8c-1.6,0-3.1-0.3-4.6-0.8"/>
				<path class="st1" d="M140.1,110.9c-1.1-2.8-1.1-5.9-0.1-8.8"/>
				<path class="st1" d="M164.5,102.1c1,2.8,0.9,5.9-0.1,8.8"/>
				<path class="st1" d="M156.5,94.1c3.7,1.3,6.7,4.3,8,8"/>
				<path class="st1" d="M164.4,110.9c-1.3,3.6-4.2,6.4-7.8,7.7"/>
				<path class="st1" d="M139.9,102.1c1.2-3.7,4.1-6.6,7.7-8"/>
				<path class="st1" d="M147.6,118.4c-3.5-1.3-6.3-4.1-7.6-7.6"/>
				<path class="st1" d="M256.8,94.1c1.5-0.6,3-0.8,4.6-0.8c1.5,0,2.9,0.3,4.3,0.8"/>
				<path class="st1" d="M265.8,118.5c-1.4,0.5-2.9,0.8-4.3,0.8c-1.6,0-3.1-0.3-4.6-0.8"/>
				<path class="st1" d="M249.3,110.9c-1.1-2.8-1.1-5.9-0.1-8.8"/>
				<path class="st1" d="M273.8,102.1c1,2.8,0.9,5.9-0.1,8.8"/>
				<path class="st1" d="M265.8,94.1c3.7,1.3,6.7,4.3,8,8"/>
				<path class="st1" d="M273.6,110.9c-1.3,3.6-4.2,6.4-7.8,7.7"/>
				<path class="st1" d="M249.2,102.1c1.2-3.7,4.1-6.6,7.7-8"/>
				<path class="st1" d="M256.8,118.4c-3.5-1.3-6.3-4.1-7.6-7.6"/>
				<path class="st1" d="M-34.9,165.2c1.9,9.5,9.3,16.8,18.7,18.7"/>
				<path class="st1" d="M93.3,148.5c1.5-0.6,3-0.8,4.6-0.8c1.5,0,2.9,0.3,4.3,0.8"/>
				<path class="st1" d="M102.2,172.9c-2.9,1-6,1-8.9-0.1"/>
				<path class="st1" d="M85.7,165.2c-1.1-2.8-1.1-5.9-0.1-8.8"/>
				<path class="st1" d="M110.1,156.4c0.5,1.3,0.7,2.8,0.7,4.2c0,1.6-0.3,3.1-0.8,4.6"/>
				<path class="st1" d="M121.2,156.4h27.3v-27.8c-9.2-2-16.4-9.2-18.3-18.5h-27.9v27.1C111.9,139.1,119.4,146.8,121.2,156.4z"/>
				<path class="st1" d="M102.2,148.4c3.7,1.3,6.7,4.3,7.9,8"/>
				<path class="st1" d="M121.2,156.4c-1.7-9.7-9.3-17.3-19-19.1"/>
				<path class="st1" d="M130.1,110.2c1.9,9.3,9.1,16.5,18.3,18.5"/>
				<path class="st1" d="M148.4,193.5v-28.3h-27.3c-1.9,9.5-9.4,16.9-18.9,18.7v27.5h28C132.2,202.4,139.4,195.4,148.4,193.5z"/>
				<path class="st1" d="M102.2,183.9c9.5-1.8,17-9.2,18.9-18.7"/>
				<path class="st1" d="M110,165.2c-1.3,3.6-4.2,6.4-7.8,7.7"/>
				<path class="st1" d="M93.3,137.4v-27.2H65.6c-1.9,9.3-9.2,16.6-18.5,18.5v27.8h27.5C76.3,146.8,83.7,139.3,93.3,137.4z"/>
				<path class="st1" d="M85.6,156.4c1.2-3.7,4.1-6.6,7.7-8"/>
				<path class="st1" d="M93.3,137.4c-9.6,1.9-17,9.5-18.8,19.1"/>
				<path class="st1" d="M74.6,165.2H47v28.2c9.1,1.9,16.3,8.9,18.4,18h27.8v-27.5C83.8,182,76.5,174.6,74.6,165.2z"/>
				<path class="st1" d="M93.3,172.8c-3.5-1.3-6.3-4.1-7.6-7.6"/>
				<path class="st1" d="M74.6,165.2c1.9,9.4,9.2,16.8,18.7,18.7"/>
				<path class="st1" d="M202.8,148.5c1.5-0.6,3-0.8,4.6-0.8c1.5,0,2.9,0.3,4.3,0.8"/>
				<path class="st1" d="M211.7,172.9c-2.9,1-6,1-8.9-0.1"/>
				<path class="st1" d="M195.2,165.2c-1.1-2.8-1.1-5.9-0.1-8.8"/>
				<path class="st1" d="M219.6,156.4c0.5,1.3,0.7,2.8,0.7,4.2c0,1.6-0.3,3.1-0.8,4.6"/>
				<path class="st1" d="M230.7,156.4h27.3v-27.8c-9.2-2-16.4-9.2-18.3-18.5h-27.9v27.1C221.4,139.1,228.9,146.8,230.7,156.4z"/>
				<path class="st1" d="M211.7,148.4c3.7,1.3,6.7,4.3,8,8"/>
				<path class="st1" d="M230.7,156.4c-1.7-9.7-9.3-17.3-19-19.1"/>
				<path class="st1" d="M239.6,110.2c1.9,9.3,9.1,16.5,18.3,18.5"/>
				<path class="st1" d="M257.9,193.5v-28.3h-27.3c-1.9,9.5-9.4,16.9-18.9,18.7v27.5h28C241.7,202.4,248.9,195.4,257.9,193.5z"/>
				<path class="st1" d="M211.7,183.9c9.5-1.8,17-9.2,18.9-18.7"/>
				<path class="st1" d="M219.5,165.2c-1.3,3.6-4.2,6.4-7.8,7.7"/>
				<path class="st1" d="M202.8,137.4v-27.2h-27.8c-1.9,9.3-9.2,16.6-18.5,18.5v27.8H184C185.8,146.8,193.2,139.3,202.8,137.4z"/>
				<path class="st1" d="M195.1,156.4c1.2-3.7,4.1-6.6,7.7-8"/>
				<path class="st1" d="M202.8,137.4c-9.6,1.9-17,9.5-18.8,19.1"/>
				<path class="st1" d="M184.1,165.2h-27.6v28.2c9.1,1.9,16.3,8.9,18.4,18h27.9v-27.5C193.4,182,186,174.7,184.1,165.2z"/>
				<path class="st1" d="M202.8,172.8c-3.5-1.3-6.3-4.1-7.6-7.6"/>
				<path class="st1" d="M184.1,165.2c1.9,9.5,9.3,16.8,18.7,18.7"/>
				<path class="st1" d="M312.3,148.5c1.5-0.6,3-0.8,4.6-0.8c1.5,0,2.9,0.3,4.3,0.8"/>
				<path class="st1" d="M321.2,172.9c-2.9,1-6,1-8.9-0.1"/>
				<path class="st1" d="M304.7,165.2c-1.1-2.8-1.1-5.9-0.1-8.8"/>
				<path class="st1" d="M329.1,156.4c0.5,1.3,0.7,2.8,0.7,4.2c0,1.6-0.3,3.1-0.8,4.6"/>
				<path class="st1" d="M340.2,156.4h27.3v-27.8c-9.2-2-16.4-9.2-18.3-18.5h-27.9v27.1C330.9,139.1,338.4,146.8,340.2,156.4z"/>
				<path class="st1" d="M321.2,148.4c3.7,1.3,6.7,4.3,8,8"/>
				<path class="st1" d="M340.2,156.4c-1.7-9.7-9.3-17.3-19-19.1"/>
				<path class="st1" d="M349.1,110.2c1.9,9.3,9.1,16.5,18.3,18.5"/>
				<path class="st1" d="M367.4,193.5v-28.3h-27.3c-1.9,9.5-9.4,16.9-18.9,18.7v27.5h28C351.2,202.4,358.4,195.4,367.4,193.5z"/>
				<path class="st1" d="M321.2,183.9c9.5-1.8,17-9.2,18.9-18.7"/>
				<path class="st1" d="M329,165.2c-1.3,3.6-4.2,6.4-7.8,7.7"/>
				<path class="st1" d="M312.3,137.4v-27.2h-27.7c-1.9,9.3-9.2,16.6-18.5,18.5v27.8h27.5C295.3,146.8,302.7,139.3,312.3,137.4z"/>
				<path class="st1" d="M304.6,156.4c1.2-3.7,4.1-6.6,7.7-8"/>
				<path class="st1" d="M312.3,137.4c-9.6,1.9-17,9.5-18.8,19.1"/>
				<path class="st1" d="M293.6,165.2H266v28.2c9.1,1.9,16.3,8.9,18.4,18h27.8v-27.5C302.8,182,295.5,174.6,293.6,165.2z"/>
				<path class="st1" d="M312.3,172.8c-3.5-1.3-6.3-4.1-7.6-7.6"/>
				<path class="st1" d="M293.6,165.2c1.9,9.4,9.2,16.8,18.7,18.7"/>
				<path class="st1" d="M-16.4,38.8c2.9-1.1,6-1.1,8.9-0.1"/>
				<path class="st1" d="M-7.5,63.2c-2.9,1-6,1-8.9-0.1"/>
				<path class="st1" d="M-24,55.5c-1.1-2.8-1.1-5.9-0.2-8.8"/>
				<path class="st1" d="M0.5,46.8c0.5,1.3,0.7,2.8,0.7,4.2c0,1.6-0.3,3.1-0.8,4.6"/>
				<path class="st1" d="M11.5,46.8h27.3V19c-9.3-2-16.5-9.2-18.3-18.5H-7.5v27.1C2.2,29.5,9.7,37.1,11.5,46.8z"/>
				<path class="st1" d="M-7.5,38.7c3.7,1.3,6.7,4.3,8,8"/>
				<path class="st1" d="M11.5,46.8C9.7,37,2.2,29.4-7.5,27.6"/>
				<path class="st1" d="M20.4,0.5C22.3,9.8,29.5,17,38.8,19"/>
				<path class="st1" d="M38.8,83.8V55.5H11.4C9.5,65,2,72.4-7.5,74.2v27.5h28C22.5,92.7,29.7,85.7,38.8,83.8z"/>
				<path class="st1" d="M-7.5,74.2C2,72.4,9.5,65,11.4,55.5"/>
				<path class="st1" d="M0.3,55.5c-1.3,3.6-4.2,6.4-7.8,7.7"/>
				<path class="st1" d="M-16.4,27.7V0.5h-27.8c-1.9,9.3-9.2,16.6-18.5,18.5v27.8h27.5C-33.4,37.1-26,29.6-16.4,27.7z"/>
				<path class="st1" d="M-24.2,46.8c1.2-3.7,4.1-6.6,7.7-8"/>
				<path class="st1" d="M-16.4,27.7c-9.6,1.9-17,9.5-18.8,19.1"/>
				<path class="st1" d="M-35.1,55.5h-27.6v28.2c9.1,1.9,16.4,8.9,18.4,18h27.8V74.2C-25.8,72.3-33.2,64.9-35.1,55.5z"/>
				<path class="st1" d="M-16.4,63.1c-3.5-1.3-6.3-4.1-7.6-7.6"/>
				<path class="st1" d="M-35.1,55.5c1.9,9.4,9.2,16.8,18.7,18.7"/>
				<path class="st1" d="M93.1,38.8c2.9-1.1,6-1.1,8.9-0.1"/>
				<path class="st1" d="M102,63.2c-2.9,1-6,1-8.9-0.1"/>
				<path class="st1" d="M85.5,55.5c-1.1-2.8-1.1-5.9-0.1-8.8"/>
				<path class="st1" d="M110,46.8c0.5,1.3,0.7,2.8,0.7,4.2c0,1.6-0.3,3.1-0.8,4.6"/>
				<path class="st1" d="M121,46.8h27.3V19c-9.3-2-16.5-9.2-18.3-18.5H102v27.1C111.7,29.5,119.2,37.1,121,46.8z"/>
				<path class="st1" d="M102,38.7c3.7,1.3,6.7,4.3,8,8"/>
				<path class="st1" d="M121,46.8c-1.7-9.7-9.3-17.3-19-19.1"/>
				<path class="st1" d="M129.9,0.5C131.8,9.8,139,17,148.2,19"/>
				<path class="st1" d="M148.2,83.8V55.5h-27.3C119,65,111.5,72.4,102,74.2v27.5h28C132,92.7,139.2,85.7,148.2,83.8z"/>
				<path class="st1" d="M102,74.2c9.5-1.8,17-9.2,18.9-18.7"/>
				<path class="st1" d="M109.8,55.5c-1.3,3.6-4.2,6.4-7.8,7.7"/>
				<path class="st1" d="M93.1,27.7V0.5H65.4C63.5,9.8,56.2,17.1,46.8,19v27.8h27.5C76.1,37.1,83.5,29.6,93.1,27.7z"/>
				<path class="st1" d="M85.4,46.8c1.2-3.7,4.1-6.6,7.7-8"/>
				<path class="st1" d="M93.1,27.7c-9.6,1.9-17,9.5-18.7,19.1"/>
				<path class="st1" d="M74.4,55.5H46.8v28.2c9.1,1.9,16.4,8.9,18.4,18h27.8V74.2C83.7,72.3,76.3,64.9,74.4,55.5z"/>
				<path class="st1" d="M93.1,63.1c-3.5-1.3-6.3-4.1-7.6-7.6"/>
				<path class="st1" d="M74.4,55.5c1.9,9.4,9.2,16.8,18.7,18.7"/>
				<path class="st1" d="M202.6,38.8c2.9-1.1,6-1.1,8.9-0.1"/>
				<path class="st1" d="M211.5,63.2c-2.9,1-6,1-8.9-0.1"/>
				<path class="st1" d="M195,55.5c-1.1-2.8-1.1-5.9-0.1-8.8"/>
				<path class="st1" d="M219.5,46.8c0.5,1.3,0.7,2.8,0.7,4.2c0,1.6-0.3,3.1-0.8,4.6"/>
				<path class="st1" d="M230.5,46.8h27.3V19c-9.3-2-16.5-9.2-18.3-18.5h-27.9v27.1C221.2,29.5,228.7,37.1,230.5,46.8z"/>
				<path class="st1" d="M211.5,38.7c3.7,1.3,6.7,4.3,8,8"/>
				<path class="st1" d="M230.5,46.8c-1.7-9.7-9.3-17.3-19-19.1"/>
				<path class="st1" d="M239.4,0.5c1.9,9.3,9.1,16.5,18.3,18.5"/>
				<path class="st1" d="M257.8,83.8V55.5h-27.3c-1.9,9.5-9.4,16.9-18.9,18.7v27.5h28C241.5,92.7,248.7,85.7,257.8,83.8z"/>
				<path class="st1" d="M211.5,74.2c9.5-1.8,17-9.2,18.9-18.7"/>
				<path class="st1" d="M219.3,55.5c-1.3,3.6-4.2,6.4-7.8,7.7"/>
				<path class="st1" d="M202.6,27.7V0.5h-27.8c-1.9,9.3-9.2,16.6-18.5,18.5v27.8h27.5C185.6,37.1,193,29.6,202.6,27.7z"/>
				<path class="st1" d="M194.8,46.8c1.2-3.7,4.1-6.6,7.7-8"/>
				<path class="st1" d="M202.6,27.7c-9.6,1.9-17,9.5-18.8,19.1"/>
				<path class="st1" d="M183.9,55.5h-27.6v28.2c9.1,1.9,16.4,8.9,18.4,18h27.8V74.2C193.2,72.3,185.8,64.9,183.9,55.5z"/>
				<path class="st1" d="M202.6,63.1c-3.5-1.3-6.3-4.1-7.6-7.6"/>
				<path class="st1" d="M183.9,55.5c1.9,9.4,9.2,16.8,18.7,18.7"/>
				<path class="st1" d="M312.1,38.8c2.9-1.1,6-1.1,8.9-0.1"/>
				<path class="st1" d="M321,63.2c-2.9,1-6,1-8.9-0.1"/>
				<path class="st1" d="M304.5,55.5c-1.1-2.8-1.1-5.9-0.1-8.8"/>
				<path class="st1" d="M329,46.8c0.5,1.3,0.7,2.8,0.7,4.2c0,1.6-0.3,3.1-0.8,4.6"/>
				<path class="st1" d="M340,46.8h27.3V19c-9.3-2-16.5-9.2-18.3-18.5H321v27.1C330.7,29.5,338.2,37.1,340,46.8z"/>
				<path class="st1" d="M321,38.7c3.7,1.3,6.7,4.3,8,8"/>
				<path class="st1" d="M340,46.8c-1.7-9.7-9.3-17.3-19-19.1"/>
				<path class="st1" d="M348.9,0.5C350.8,9.8,358,17,367.2,19"/>
				<path class="st1" d="M367.2,83.8V55.5h-27.3C338,65,330.5,72.4,321,74.2v27.5h28C351,92.7,358.2,85.7,367.2,83.8z"/>
				<path class="st1" d="M321,74.2c9.5-1.8,17-9.2,18.9-18.7"/>
				<path class="st1" d="M328.8,55.5c-1.3,3.6-4.2,6.4-7.8,7.7"/>
				<path class="st1" d="M312.1,27.7V0.5h-27.7c-1.9,9.3-9.2,16.6-18.5,18.5v27.8h27.5C295.1,37.1,302.5,29.6,312.1,27.7z"/>
				<path class="st1" d="M304.4,46.8c1.2-3.7,4.1-6.6,7.7-8"/>
				<path class="st1" d="M312.1,27.7c-9.6,1.9-17,9.5-18.7,19.1"/>
				<path class="st1" d="M293.4,55.5h-27.6v28.2c9.1,1.9,16.4,8.9,18.4,18h27.8V74.2C302.7,72.3,295.3,64.9,293.4,55.5z"/>
				<path class="st1" d="M312.1,63.1c-3.5-1.3-6.3-4.1-7.6-7.6"/>
				<path class="st1" d="M293.4,55.5c1.9,9.4,9.2,16.8,18.7,18.7"/>
				<path class="st1" d="M366.4,94.1c1.5-0.6,3-0.8,4.6-0.8c1.5,0,2.9,0.3,4.3,0.8"/>
				<path class="st1" d="M375.3,118.5c-1.4,0.5-2.9,0.8-4.3,0.8c-1.6,0-3.1-0.3-4.6-0.8"/>
				<path class="st1" d="M358.8,110.9c-1.1-2.8-1.1-5.9-0.1-8.8"/>
				<path class="st1" d="M383.2,102.1c0.5,1.3,0.7,2.8,0.7,4.2c0,1.6-0.3,3.1-0.8,4.6"/>
				<path class="st1" d="M375.3,94.1c3.7,1.3,6.7,4.3,8,8"/>
				<path class="st1" d="M383.1,110.9c-1.3,3.6-4.2,6.4-7.8,7.7"/>
				<path class="st1" d="M358.6,102.1c1.2-3.7,4.1-6.6,7.7-8"/>
				<path class="st1" d="M366.4,118.4c-3.5-1.3-6.3-4.1-7.6-7.6"/>
				<path class="st1" d="M349.1,110.2c1.9,9.3,9.1,16.5,18.3,18.5"/>
				<path class="st1" d="M421.8,148.5c1.5-0.6,3-0.8,4.6-0.8c1.5,0,2.9,0.3,4.3,0.8"/>
				<path class="st1" d="M430.7,172.9c-2.9,1-6,1-8.9-0.1"/>
				<path class="st1" d="M414.2,165.2c-1.1-2.8-1.1-5.9-0.1-8.8"/>
				<path class="st1" d="M438.6,156.4c1,2.8,0.9,5.9-0.1,8.8"/>
				<path class="st1" d="M449.6,156.4h27.3v-27.8c-9.2-2-16.4-9.2-18.3-18.5h-27.9v27.1C440.4,139.1,447.9,146.8,449.6,156.4z"/>
				<path class="st1" d="M430.7,148.4c3.7,1.3,6.7,4.3,8,8"/>
				<path class="st1" d="M449.6,156.4c-1.7-9.7-9.3-17.3-19-19.1"/>
				<path class="st1" d="M445.8,174.2c5.6-8.1,5.7-18.8,0.1-26.9"/>
				<path class="st1" d="M458.6,110.2c1.9,9.3,9.1,16.5,18.3,18.5"/>
				<path class="st1" d="M476.9,193.5v-28.3h-27.3c-1.9,9.5-9.4,16.9-18.9,18.7v27.5h28C460.7,202.4,467.8,195.4,476.9,193.5z"/>
				<path class="st1" d="M430.7,183.9c9.5-1.8,17-9.2,18.9-18.7"/>
				<path class="st1" d="M438.5,165.2c-1.3,3.6-4.2,6.4-7.8,7.7"/>
				<path class="st1" d="M421.8,137.4v-27.2H394c-1.9,9.3-9.2,16.6-18.5,18.5v27.8H403C404.7,146.8,412.2,139.3,421.8,137.4z"/>
				<path class="st1" d="M414,156.4c1.2-3.7,4.1-6.6,7.7-8"/>
				<path class="st1" d="M421.8,137.4c-9.6,1.9-17,9.5-18.7,19.1"/>
				<path class="st1" d="M403.1,165.2h-27.6v28.2c9.1,1.9,16.3,8.9,18.4,18h27.8v-27.5C412.3,182,404.9,174.6,403.1,165.2z"/>
				<path class="st1" d="M421.8,172.8c-3.5-1.3-6.3-4.1-7.6-7.6"/>
				<path class="st1" d="M403.1,165.2c1.9,9.4,9.2,16.8,18.7,18.7"/>
				<path class="st1" d="M348.9,0.5C350.8,9.8,358,17,367.2,19"/>
				<path class="st1" d="M421.6,38.8c2.9-1.1,6-1.1,8.9-0.1"/>
				<path class="st1" d="M430.5,63.2c-2.9,1-6,1-8.9-0.1"/>
				<path class="st1" d="M414,55.5c-0.6-1.5-0.8-3-0.8-4.6c0-1.4,0.2-2.8,0.7-4.2"/>
				<path class="st1" d="M438.4,46.8c0.5,1.3,0.7,2.8,0.7,4.2c0,1.6-0.3,3.1-0.8,4.6"/>
				<path class="st1" d="M449.5,46.8h27.3V19c-9.3-2-16.5-9.2-18.3-18.5h-27.9v27.1C440.2,29.5,447.7,37.1,449.5,46.8z"/>
				<path class="st1" d="M430.5,38.7c3.7,1.3,6.7,4.3,8,8"/>
				<path class="st1" d="M449.5,46.8c-1.7-9.7-9.3-17.3-19-19.1"/>
				<path class="st1" d="M458.4,0.5c1.9,9.3,9.1,16.5,18.3,18.5"/>
				<path class="st1" d="M476.7,83.8V55.5h-27.3c-1.9,9.5-9.4,16.9-18.9,18.7v27.5h28C460.5,92.7,467.6,85.7,476.7,83.8z"/>
				<path class="st1" d="M430.5,74.2c9.5-1.8,17-9.2,18.9-18.7"/>
				<path class="st1" d="M438.3,55.5c-1.3,3.6-4.2,6.4-7.8,7.7"/>
				<path class="st1" d="M421.6,27.7V0.5h-27.7c-1.9,9.3-9.2,16.6-18.5,18.5v27.8h27.5C404.6,37.2,412,29.6,421.6,27.7z"/>
				<path class="st1" d="M413.8,46.8c1.2-3.7,4.1-6.6,7.7-8"/>
				<path class="st1" d="M421.6,27.7c-9.6,1.9-17,9.5-18.7,19.1"/>
				<path class="st1" d="M402.9,55.5h-27.6v28.2c9.1,1.9,16.4,8.9,18.4,18h27.8V74.2C412.1,72.3,404.7,64.9,402.9,55.5z"/>
				<path class="st1" d="M-16.2,258c1.5-0.6,3-0.8,4.6-0.8c1.5,0,2.9,0.3,4.3,0.8"/>
				<path class="st1" d="M-7.3,282.4c-2.9,1-6,1-8.9-0.1"/>
				<path class="st1" d="M-23.8,274.7c-1.1-2.8-1.1-5.9-0.1-8.8"/>
				<path class="st1" d="M0.7,265.9c0.5,1.3,0.7,2.8,0.7,4.2c0,1.6-0.3,3.1-0.8,4.6"/>
				<path class="st1" d="M11.7,265.9H39v-27.8c-9.2-2-16.4-9.2-18.3-18.5H-7.3v27.1C2.4,248.6,9.9,256.2,11.7,265.9z"/>
				<path class="st1" d="M-7.3,257.9c3.8,1.3,6.7,4.3,8,8"/>
				<path class="st1" d="M11.7,265.9c-1.7-9.7-9.3-17.3-19-19.1"/>
				<path class="st1" d="M20.6,219.7c1.9,9.3,9.1,16.5,18.3,18.5"/>
				<path class="st1" d="M39,302.9v-28.3H11.6c-1.9,9.5-9.4,16.9-18.9,18.7v27.5h28C22.7,311.9,29.9,304.9,39,302.9z"/>
				<path class="st1" d="M-7.3,293.4c9.5-1.8,17-9.2,18.9-18.7"/>
				<path class="st1" d="M0.5,274.7c-1.3,3.6-4.2,6.4-7.8,7.7"/>
				<path class="st1" d="M-16.2,246.9v-27.2h-27.8c-1.9,9.3-9.2,16.6-18.5,18.5v27.8H-35C-33.2,256.3-25.8,248.7-16.2,246.9z"/>
				<path class="st1" d="M-23.9,265.9c1.3-3.7,4.1-6.6,7.8-7.9"/>
				<path class="st1" d="M-16.2,246.9c-9.6,1.9-17.1,9.4-18.8,19.1"/>
				<path class="st1" d="M-34.9,274.7h-27.6v28.2c9.1,1.9,16.4,8.9,18.4,18h27.9v-27.6C-25.6,291.5-33,284.1-34.9,274.7z"/>
				<path class="st1" d="M-16.2,282.3c-3.5-1.3-6.3-4.1-7.6-7.6"/>
				<path class="st1" d="M38.4,203.6c1.5-0.6,3-0.8,4.6-0.8c1.5,0,2.9,0.3,4.3,0.8"/>
				<path class="st1" d="M47.3,228c-2.9,1-6,1-8.9-0.1"/>
				<path class="st1" d="M30.8,220.3c-1.1-2.8-1.1-5.9-0.1-8.8"/>
				<path class="st1" d="M55.3,211.6c1,2.8,0.9,5.9-0.1,8.8"/>
				<path class="st1" d="M47.3,203.5c3.8,1.3,6.7,4.3,8,8.1"/>
				<path class="st1" d="M55.1,220.3c-1.3,3.6-4.2,6.4-7.8,7.7"/>
				<path class="st1" d="M30.7,211.6c1.2-3.7,4.1-6.6,7.7-8"/>
				<path class="st1" d="M38.4,227.9c-3.5-1.3-6.2-4.1-7.5-7.6"/>
				<path class="st1" d="M147.6,203.6c1.5-0.6,3-0.8,4.6-0.8c1.5,0,2.9,0.3,4.3,0.8"/>
				<path class="st1" d="M156.5,228c-2.9,1-6,1-8.9-0.1"/>
				<path class="st1" d="M140.1,220.3c-1.1-2.8-1.1-5.9-0.1-8.8"/>
				<path class="st1" d="M164.5,211.6c1,2.8,0.9,5.9-0.1,8.8"/>
				<path class="st1" d="M156.5,203.5c3.8,1.3,6.7,4.3,8,8.1"/>
				<path class="st1" d="M164.4,220.3c-1.4,3.6-4.2,6.4-7.8,7.7"/>
				<path class="st1" d="M139.9,211.6c1.2-3.7,4.1-6.6,7.7-8"/>
				<path class="st1" d="M147.6,227.9c-3.5-1.3-6.3-4.1-7.6-7.6"/>
				<path class="st1" d="M256.8,203.6c1.5-0.6,3-0.8,4.6-0.8c1.5,0,2.9,0.3,4.3,0.8"/>
				<path class="st1" d="M265.8,228c-2.9,1-6,1-8.9-0.1"/>
				<path class="st1" d="M249.3,220.3c-1.1-2.8-1.1-5.9-0.1-8.8"/>
				<path class="st1" d="M273.8,211.6c1,2.8,0.9,5.9-0.1,8.8"/>
				<path class="st1" d="M265.8,203.5c3.8,1.3,6.7,4.3,8,8.1"/>
				<path class="st1" d="M273.6,220.3c-1.3,3.6-4.2,6.4-7.8,7.7"/>
				<path class="st1" d="M249.2,211.6c1.2-3.7,4.1-6.6,7.7-8"/>
				<path class="st1" d="M256.8,227.9c-3.5-1.3-6.3-4.1-7.6-7.6"/>
				<path class="st1" d="M-34.9,274.7c1.9,9.5,9.3,16.8,18.7,18.7"/>
				<path class="st1" d="M93.3,258c1.5-0.6,3-0.8,4.6-0.8c1.5,0,2.9,0.3,4.3,0.8"/>
				<path class="st1" d="M102.2,282.4c-2.9,1-6,1-8.9-0.1"/>
				<path class="st1" d="M85.7,274.7c-1.1-2.8-1.1-5.9-0.1-8.8"/>
				<path class="st1" d="M110.1,265.9c0.5,1.3,0.7,2.8,0.7,4.2c0,1.6-0.3,3.1-0.8,4.6"/>
				<path class="st1" d="M121.2,265.9h27.3v-27.8c-9.2-2-16.4-9.2-18.3-18.5h-27.9v27.1C111.9,248.6,119.4,256.2,121.2,265.9z"/>
				<path class="st1" d="M102.2,257.9c3.7,1.3,6.7,4.3,7.9,8"/>
				<path class="st1" d="M121.2,265.9c-1.7-9.7-9.3-17.3-19-19.1"/>
				<path class="st1" d="M130.1,219.7c1.9,9.3,9.1,16.5,18.3,18.5"/>
				<path class="st1" d="M148.4,302.9v-28.3h-27.3c-1.9,9.5-9.4,16.9-18.9,18.7v27.5h28C132.2,311.9,139.4,304.9,148.4,302.9z"/>
				<path class="st1" d="M102.2,293.4c9.5-1.8,17-9.2,18.9-18.7"/>
				<path class="st1" d="M110,274.7c-1.3,3.6-4.2,6.4-7.8,7.7"/>
				<path class="st1" d="M93.3,246.9v-27.2H65.6c-1.9,9.3-9.2,16.6-18.5,18.5v27.8h27.5C76.3,256.3,83.7,248.8,93.3,246.9z"/>
				<path class="st1" d="M85.6,265.9c1.2-3.7,4.1-6.6,7.7-8"/>
				<path class="st1" d="M93.3,246.9c-9.6,1.9-17,9.5-18.8,19.1"/>
				<path class="st1" d="M74.6,274.7H47v28.2c9.1,1.9,16.4,8.9,18.4,18h27.8v-27.6C83.8,291.5,76.5,284.1,74.6,274.7z"/>
				<path class="st1" d="M93.3,282.3c-3.5-1.3-6.3-4.1-7.6-7.6"/>
				<path class="st1" d="M74.6,274.7c1.9,9.4,9.2,16.8,18.7,18.7"/>
				<path class="st1" d="M202.8,258c1.5-0.6,3-0.8,4.6-0.8c1.5,0,2.9,0.3,4.3,0.8"/>
				<path class="st1" d="M211.7,282.4c-2.9,1-6,1-8.9-0.1"/>
				<path class="st1" d="M195.2,274.7c-1.1-2.8-1.1-5.9-0.1-8.8"/>
				<path class="st1" d="M219.6,265.9c0.5,1.3,0.7,2.8,0.7,4.2c0,1.6-0.3,3.1-0.8,4.6"/>
				<path class="st1" d="M230.7,265.9h27.3v-27.8c-9.2-2-16.4-9.2-18.3-18.5h-27.9v27.1C221.4,248.6,228.9,256.2,230.7,265.9z"/>
				<path class="st1" d="M211.7,257.9c3.7,1.3,6.7,4.3,8,8"/>
				<path class="st1" d="M230.7,265.9c-1.7-9.7-9.3-17.3-19-19.1"/>
				<path class="st1" d="M239.6,219.7c1.9,9.3,9.1,16.5,18.3,18.5"/>
				<path class="st1" d="M257.9,302.9v-28.3h-27.3c-1.9,9.5-9.4,16.9-18.9,18.7v27.5h28C241.7,311.9,248.9,304.9,257.9,302.9z"/>
				<path class="st1" d="M211.7,293.4c9.5-1.8,17-9.2,18.9-18.7"/>
				<path class="st1" d="M219.5,274.7c-1.3,3.6-4.2,6.4-7.8,7.7"/>
				<path class="st1" d="M202.8,246.9v-27.2h-27.8c-1.9,9.3-9.2,16.6-18.5,18.5v27.8H184C185.8,256.3,193.2,248.7,202.8,246.9z"/>
				<path class="st1" d="M195.1,265.9c1.2-3.7,4.1-6.6,7.7-8"/>
				<path class="st1" d="M202.8,246.9c-9.6,1.9-17,9.5-18.8,19.1"/>
				<path class="st1" d="M184.1,274.7h-27.6v28.2c9.1,1.9,16.4,8.9,18.4,18h27.9v-27.6C193.4,291.5,186,284.1,184.1,274.7z"/>
				<path class="st1" d="M202.8,282.3c-3.5-1.3-6.3-4.1-7.6-7.6"/>
				<path class="st1" d="M184.1,274.7c1.9,9.5,9.3,16.8,18.7,18.7"/>
				<path class="st1" d="M312.3,258c1.5-0.6,3-0.8,4.6-0.8c1.5,0,2.9,0.3,4.3,0.8"/>
				<path class="st1" d="M321.2,282.4c-2.9,1-6,1-8.9-0.1"/>
				<path class="st1" d="M304.7,274.7c-1.1-2.8-1.1-5.9-0.1-8.8"/>
				<path class="st1" d="M329.1,265.9c0.5,1.3,0.7,2.8,0.7,4.2c0,1.6-0.3,3.1-0.8,4.6"/>
				<path class="st1" d="M340.2,265.9h27.3v-27.8c-9.2-2-16.4-9.2-18.3-18.5h-27.9v27.1C330.9,248.6,338.4,256.2,340.2,265.9z"/>
				<path class="st1" d="M321.2,257.9c3.7,1.3,6.7,4.3,8,8"/>
				<path class="st1" d="M340.2,265.9c-1.7-9.7-9.3-17.3-19-19.1"/>
				<path class="st1" d="M349.1,219.7c1.9,9.3,9.1,16.5,18.3,18.5"/>
				<path class="st1" d="M367.4,302.9v-28.3h-27.3c-1.9,9.5-9.4,16.9-18.9,18.7v27.5h28C351.2,311.9,358.4,304.9,367.4,302.9z"/>
				<path class="st1" d="M321.2,293.4c9.5-1.8,17-9.2,18.9-18.7"/>
				<path class="st1" d="M329,274.7c-1.3,3.6-4.2,6.4-7.8,7.7"/>
				<path class="st1" d="M312.3,246.9v-27.2h-27.7c-1.9,9.3-9.2,16.6-18.5,18.5v27.8h27.5C295.3,256.3,302.7,248.8,312.3,246.9z"/>
				<path class="st1" d="M304.6,265.9c1.2-3.7,4.1-6.6,7.7-8"/>
				<path class="st1" d="M312.3,246.9c-9.6,1.9-17,9.5-18.8,19.1"/>
				<path class="st1" d="M293.6,274.7H266v28.2c9.1,1.9,16.4,8.9,18.4,18h27.8v-27.6C302.8,291.5,295.5,284.1,293.6,274.7z"/>
				<path class="st1" d="M312.3,282.3c-3.5-1.3-6.3-4.1-7.6-7.6"/>
				<path class="st1" d="M293.6,274.7c1.9,9.4,9.2,16.8,18.7,18.7"/>
				<path class="st1" d="M366.4,203.6c1.5-0.6,3-0.8,4.6-0.8c1.5,0,2.9,0.3,4.3,0.8"/>
				<path class="st1" d="M375.3,228c-2.9,1-6,1-8.9-0.1"/>
				<path class="st1" d="M358.8,220.3c-1.1-2.8-1.1-5.9-0.1-8.8"/>
				<path class="st1" d="M383.2,211.6c0.5,1.3,0.7,2.8,0.7,4.2c0,1.6-0.3,3.1-0.8,4.6"/>
				<path class="st1" d="M375.3,203.5c3.8,1.3,6.7,4.3,8,8.1"/>
				<path class="st1" d="M383.1,220.3c-1.3,3.6-4.2,6.4-7.8,7.7"/>
				<path class="st1" d="M358.6,211.6c1.2-3.7,4.1-6.6,7.7-8"/>
				<path class="st1" d="M366.4,227.9c-3.5-1.3-6.3-4.1-7.6-7.6"/>
				<path class="st1" d="M349.1,219.7c1.9,9.3,9.1,16.5,18.3,18.5"/>
				<path class="st1" d="M421.8,258c1.5-0.6,3-0.8,4.6-0.8c1.5,0,2.9,0.3,4.3,0.8"/>
				<path class="st1" d="M430.7,282.4c-2.9,1-6,1-8.9-0.1"/>
				<path class="st1" d="M414.2,274.7c-1.1-2.8-1.1-5.9-0.1-8.8"/>
				<path class="st1" d="M438.6,265.9c1,2.8,0.9,5.9-0.1,8.8"/>
				<path class="st1" d="M449.6,265.9h27.3v-27.8c-9.2-2-16.4-9.2-18.3-18.5h-27.9v27.1C440.4,248.6,447.9,256.2,449.6,265.9z"/>
				<path class="st1" d="M430.7,257.9c3.8,1.3,6.7,4.3,8,8"/>
				<path class="st1" d="M449.6,265.9c-1.7-9.7-9.3-17.3-19-19.1"/>
				<path class="st1" d="M458.6,219.7c1.9,9.3,9.1,16.5,18.3,18.5"/>
				<path class="st1" d="M476.9,302.9v-28.3h-27.3c-1.9,9.5-9.4,16.9-18.9,18.7v27.5h28C460.7,311.9,467.8,304.9,476.9,302.9z"/>
				<path class="st1" d="M430.7,293.4c9.5-1.8,17-9.2,18.9-18.7"/>
				<path class="st1" d="M438.5,274.7c-1.3,3.6-4.2,6.4-7.8,7.7"/>
				<path class="st1" d="M421.8,246.9v-27.2H394c-1.9,9.3-9.2,16.6-18.5,18.5v27.8H403C404.7,256.3,412.2,248.8,421.8,246.9z"/>
				<path class="st1" d="M414,265.9c1.2-3.7,4.1-6.6,7.7-8"/>
				<path class="st1" d="M421.8,246.9c-9.6,1.9-17,9.5-18.7,19.1"/>
				<path class="st1" d="M403.1,274.7h-27.6v28.2c9.1,1.9,16.4,8.9,18.4,18h27.8v-27.6C412.3,291.5,404.9,284.1,403.1,274.7z"/>
				<path class="st1" d="M421.8,282.3c-3.5-1.3-6.3-4.1-7.6-7.6"/>
				<path class="st1" d="M403.1,274.7c1.9,9.4,9.2,16.8,18.7,18.7"/>
				<path class="st1" d="M421.6,63.1c-3.5-1.3-6.3-4.1-7.6-7.6"/>
				<path class="st1" d="M402.9,55.5c1.9,9.4,9.2,16.8,18.7,18.7"/>
			</g>
		</g>
		<line class="st1" x1="3831.3" y1="110.2" x2="445" y2="110.2"/>
		<line class="st1" x1="445" y1="211.4" x2="3831.4" y2="211.4"/>
		<line class="st1" x1="444.8" y1="101.8" x2="3831.2" y2="101.8"/>
		<line class="st1" x1="3831.3" y1="219.7" x2="445" y2="219.7"/>
	</g>
</g>
</svg>
