<svg xmlns="http://www.w3.org/2000/svg" viewBox="0 0 161.98 161.36"><defs><style>.cls-1{fill:#c6b784;}</style></defs><title>Instagram_Icon</title><g id="Layer_2" data-name="Layer 2"><g id="Layer_1-2" data-name="Layer 1"><path class="cls-1" d="M72.9,73.52a10.14,10.14,0,0,0-3,7.47,11,11,0,1,0,21.92,0h0a12.25,12.25,0,0,0-2.49-7.47c-2-2.49-5-3.49-8.47-3.49h0a8.62,8.62,0,0,0-8,3.49m-8.47,7a15.47,15.47,0,0,1,4.49-11,16.24,16.24,0,0,1,11.45-5h0a17.31,17.31,0,0,1,12.45,5,14.23,14.23,0,0,1,4,11.46,16.22,16.22,0,0,1-5,11.46c-3,3-7,5-11.46,4.48A16.58,16.58,0,0,1,63.94,80.49M96.81,68a3.88,3.88,0,0,1-3-4.48c.5-1.5,1.49-3,3-3A3.81,3.81,0,0,1,98.3,68H96.81M55,68v26.4c-.5,7,5,12.45,12,13H92.33a13.28,13.28,0,0,0,13.94-12.45V68a12.86,12.86,0,0,0-13-13H68.42A13.1,13.1,0,0,0,56,68M39,50.11A10.53,10.53,0,0,1,49.49,39.65h61.76a10.52,10.52,0,0,1,10.46,10.46v61.76a10.52,10.52,0,0,1-10.46,10.46H49.49A10.52,10.52,0,0,1,39,111.87ZM0,81c0,44.51,35.86,80.37,81,80.37S162,125.5,162,81A80.87,80.87,0,0,0,81,0h0C35.86.62,0,36.48,0,81"/></g></g></svg>